<svg width="298" height="232" viewBox="0 0 298 232" xmlns="http://www.w3.org/2000/svg" xmlns:xlink="http://www.w3.org/1999/xlink"><svg width="66" height="66" viewBox="-1 -1 66 66" xmlns="http://www.w3.org/2000/svg"><path fill="#F06449" d="M31.791.331C14.232.331 0 14.56 0 32.12c0 17.558 14.232 31.791 31.79 31.791S63.58 49.678 63.58 32.12C63.581 14.56 49.348.331 31.791.331zm-4.622 26.391l-8.964 5.557 8.964 5.607v3.149l-11.305-7.297v-2.954l11.305-7.209v3.147zm3.003 18.73h-1.688l4.948-26.663h1.676l-4.936 26.663zm17.545-11.714l-11.306 7.297v-3.149l8.953-5.607-8.953-5.557v-3.146l11.306 7.209v2.953z"/></svg><svg width="34" height="34" viewBox="-1 -1 34 34" x="34" y="198" xmlns="http://www.w3.org/2000/svg"><path fill="#F06449" d="M9.375 14.85v2.3l1.72-1.151zm.551 3.587l5.387 3.59V18.82l-2.982-1.993zm12.148-4.874l-5.386-3.59v3.207l2.981 1.993zm-6.074.81l-2.432 1.626L16 17.626l2.432-1.627zm-.687-1.194V9.972l-5.387 3.591 2.405 1.61zm1.375 5.641v3.207l5.386-3.59-2.405-1.609z"/><path fill="#F06449" d="M16 0C7.163 0 0 7.163 0 16c0 8.836 7.163 16 16 16s16-7.164 16-16c0-8.837-7.163-16-16-16m8 18.438a.68.68 0 0 1-.006.09l-.006.029a.375.375 0 0 1-.013.058l-.011.033a1.016 1.016 0 0 1-.017.051l-.017.033a.292.292 0 0 1-.043.078.995.995 0 0 1-.051.07.298.298 0 0 1-.034.037.618.618 0 0 1-.066.06l-.031.022-.011.01-7.313 4.875a.685.685 0 0 1-.762.001L8.306 19.01a.1.1 0 0 0-.011-.01l-.031-.022a.618.618 0 0 1-.1-.097l-.024-.029a.481.481 0 0 1-.027-.041c-.008-.012-.015-.021-.021-.032a.277.277 0 0 1-.022-.046c-.007-.011-.012-.022-.017-.033-.007-.017-.012-.034-.017-.051l-.011-.033a.375.375 0 0 1-.013-.058l-.006-.029A.719.719 0 0 1 8 18.438v-4.875a.67.67 0 0 1 .025-.177l.011-.033a.367.367 0 0 1 .034-.084.491.491 0 0 1 .022-.046c.006-.012.013-.021.021-.032l.027-.041.024-.03a.572.572 0 0 1 .034-.037c.009-.009.018-.019.027-.026a.618.618 0 0 1 .039-.033c.011-.008.021-.017.031-.023l.011-.009 7.313-4.875a.686.686 0 0 1 .762 0l7.313 4.875.011.009.031.023a.618.618 0 0 1 .039.033c.01.008.019.018.027.026a.572.572 0 0 1 .034.037l.023.03a.27.27 0 0 1 .028.041.292.292 0 0 1 .043.078c.006.011.012.021.017.034.006.016.012.032.017.05l.011.033a.35.35 0 0 1 .013.058l.006.029a.67.67 0 0 1 .006.09v4.875z"/><path fill="#F06449" d="M22.625 17.15v-2.3l-1.721 1.149z"/></svg><svg width="34" height="34" viewBox="-1 -1 34 34" x="264" y="34" xmlns="http://www.w3.org/2000/svg"><path fill="#F06449" d="M16 .15c-8.837 0-16 7.163-16 16 0 8.836 7.163 16 16 16s16-7.164 16-16c0-8.837-7.163-16-16-16z"/><path fill="#FFF" d="M16.209 11.949l-5.711 2.379.19 2.355 5.521-2.361 5.873-2.511.244-2.41z"/><linearGradient id="a" gradientUnits="userSpaceOnUse" x1="13.354" y1="16.683" x2="13.354" y2="11.949"><stop offset=".387" stop-color="#d0d2d3" stop-opacity="0"/><stop offset="1" stop-color="#d0d2d3"/></linearGradient><path fill="url(#a)" d="M10.498 14.328l.19 2.355 5.521-2.361v-2.373z"/><linearGradient id="b" gradientUnits="userSpaceOnUse" x1="19.268" y1="14.322" x2="19.268" y2="9.401"><stop offset=".387" stop-color="#d0d2d3" stop-opacity="0"/><stop offset="1" stop-color="#d0d2d3"/></linearGradient><path fill="url(#b)" d="M22.326 9.401l-6.117 2.548v2.373l5.873-2.511z"/><linearGradient id="c" gradientUnits="userSpaceOnUse" x1="10.507" y1="18.794" x2="21.875" y2="18.794"><stop offset="0" stop-color="#e7e6e5"/><stop offset="1" stop-color="#fff"/></linearGradient><path fill="url(#c)" d="M10.507 14.328l.189 2.355 8.472.027-.189 3.14-2.788.784-2.68-.677-.162-1.948h-2.49l.325 3.762 5.035 1.489 5.008-1.462.648-7.47z"/><path d="M16.209 14.328h-5.711l.19 2.355 5.521.017zm0 6.298l-.027.008-2.68-.677-.162-1.948h-2.49l.325 3.762 5.034 1.489z" opacity=".05" fill="#231F20"/><linearGradient id="d" gradientUnits="userSpaceOnUse" x1="9.984" y1="10.606" x2="22.326" y2="10.606"><stop offset="0" stop-color="#e7e6e5"/><stop offset="1" stop-color="#fff"/></linearGradient><path fill="url(#d)" d="M9.984 9.401h12.342l-.244 2.41h-11.8z"/><path opacity=".05" fill="#231F20" d="M16.209 9.401H9.984l.298 2.41h5.927z"/></svg><svg width="66" height="66" viewBox="-1 -1 66 66" x="66" y="66" xmlns="http://www.w3.org/2000/svg"><g fill="#F06449"><path d="M44.359 20.466c-.539.301-1.229.679-2.067 1.135l-4.167 2.208c-4.446 2.363-7.286 4.358-8.52 5.985l-.171.218c1.347.85 2.207 1.964 2.58 3.343l.296-.14c1.959-.829 4.498-2.918 7.618-6.266l3.42-3.67a57.793 57.793 0 0 0 2.534-2.876c.052-.063.182-.207.389-.436l-.295-.326c-.415.167-.954.441-1.617.825zM27.988 31.862l-3.063 3.7c.301.113.487.337.56.668l4.399-2.021c-.301-.942-.932-1.726-1.896-2.347z"/><path d="M32 .209C14.441.209.21 14.438.21 31.999.209 49.557 14.441 63.79 32 63.79c17.558 0 31.79-14.233 31.79-31.791C63.79 14.438 49.557.209 32 .209zm13.68 21.578c-.383.436-.787.901-1.212 1.399-.373.425-.648.73-.824.917l-4.104 4.338c-2.457 2.633-4.654 4.39-6.592 5.271l-7.276 3.28c-.487 2.851-2.104 4.275-4.851 4.275h-.513c-1.39 0-2.482.606-3.281 1.819.146-2.436.845-4.338 2.1-5.706 1.254-1.368 2.975-2.104 5.161-2.207l4.944-6.126c1.315-1.627 3.519-3.265 6.607-4.913l5.908-3.156c2.57-1.378 4.031-2.067 4.384-2.067.56 0 .84.259.84.777 0 .425-.43 1.125-1.291 2.099z"/></g></svg><svg width="66" height="66" viewBox="-1 -1 66 66" x="132" xmlns="http://www.w3.org/2000/svg"><path fill="#F06449" d="M31.849.5C14.338.5.141 14.695.141 32.209c0 17.509 14.197 31.707 31.708 31.707 17.514 0 31.709-14.198 31.709-31.707C63.558 14.695 49.363.5 31.849.5m8.234 21.117l-2.985.003c-2.341 0-2.795 1.11-2.795 2.741v3.602h5.586l-.728 5.637h-4.857v14.462h-5.82V33.6h-4.865v-5.637h4.865v-4.158c0-4.825 2.948-7.451 7.25-7.451 2.062 0 3.835.152 4.351.223v5.04z"/></svg><svg width="34" height="34" viewBox="-1 -1 34 34" x="264" xmlns="http://www.w3.org/2000/svg"><path fill="#ECF8F8" d="M30.666 0H1.334C.597 0 0 .598 0 1.333v29.334C0 31.402.597 32 1.334 32H17V20h-4v-5h4v-4c0-4.133 2.617-6.167 6.305-6.167 1.766 0 3.283.132 3.725.19v4.319l-2.557.001c-2.005 0-2.473.953-2.473 2.352V15h5l-1 5h-4l.08 12h8.586c.736 0 1.334-.598 1.334-1.333V1.333C32 .598 31.402 0 30.666 0"/></svg><svg width="34" height="34" viewBox="-1 -1 34 34" x="204" y="198" xmlns="http://www.w3.org/2000/svg"><path fill="#F06449" d="M16 0C7.163 0 0 7.163 0 16c0 8.836 7.163 16 16 16 8.835 0 16-7.164 16-16 0-8.837-7.164-16-16-16m2.274 22.385s-1.082.131-2.274.131-2.288-.121-2.288-.121C10.927 22.078 8 21.002 8 16.197c0-1.369.488-2.488 1.29-3.365-.128-.317-.559-1.592.123-3.319 0 0 1.053-.337 3.449 1.286 1-.277 2.073-.417 3.139-.422 1.065.005 2.137.145 3.139.422 2.395-1.623 3.445-1.286 3.445-1.286.685 1.728.254 3.002.125 3.319.804.877 1.29 1.996 1.29 3.365 0 4.817-2.932 5.878-5.726 6.188"/></svg><svg width="66" height="66" viewBox="-1 -1 66 66" x="66" y="132" xmlns="http://www.w3.org/2000/svg"><path fill="#F06449" d="M32 .449C14.574.449.45 14.575.45 31.999.45 49.424 14.575 63.551 32 63.551c17.424 0 31.551-14.127 31.551-31.552C63.55 14.575 49.423.449 32 .449m4.484 44.142s-2.133.258-4.484.258-4.511-.238-4.511-.238c-5.492-.625-11.264-2.746-11.264-12.222 0-2.699.962-4.907 2.544-6.636-.253-.626-1.103-3.14.242-6.547 0 0 2.077-.664 6.801 2.537 1.972-.546 4.088-.822 6.19-.831 2.101.009 4.216.285 6.191.831 4.721-3.201 6.794-2.537 6.794-2.537 1.35 3.407.499 5.921.245 6.547 1.583 1.729 2.542 3.937 2.542 6.636 0 9.499-5.781 11.59-11.29 12.202"/></svg><svg width="34" height="34" viewBox="-1 -1 34 34" y="198" xmlns="http://www.w3.org/2000/svg"><path fill="#ECF8F8" d="M15.999.395C7.164.395 0 7.558 0 16.396c0 7.068 4.584 13.065 10.943 15.181.8.147 1.092-.347 1.092-.771 0-.382-.014-1.388-.022-2.723-4.451.968-5.39-2.146-5.39-2.146-.727-1.848-1.776-2.34-1.776-2.34-1.453-.992.11-.973.11-.973 1.605.113 2.45 1.648 2.45 1.648 1.428 2.444 3.745 1.74 4.657 1.33.145-1.035.559-1.739 1.016-2.14-3.553-.403-7.288-1.776-7.288-7.908 0-1.747.623-3.175 1.647-4.294-.165-.4-.714-2.026.156-4.229 0 0 1.344-.43 4.4 1.64a15.36 15.36 0 0 1 4.006-.539c1.358.007 2.728.184 4.006.539 3.054-2.07 4.396-1.64 4.396-1.64.873 2.203.324 3.829.158 4.234 1.026 1.119 1.646 2.547 1.646 4.294 0 6.146-3.741 7.5-7.307 7.895.574.494 1.086 1.47 1.086 2.963 0 2.14-.02 3.864-.02 4.39 0 .428.288.926 1.1.77C27.42 29.455 32 23.462 32 16.396 32 7.558 24.836.395 15.999.395"/></svg><svg width="34" height="34" viewBox="-1 -1 34 34" x="136" y="198" xmlns="http://www.w3.org/2000/svg"><path fill="#F06449" d="M16 0C7.163 0 0 7.163 0 16c0 8.836 7.163 16 16 16s16-7.164 16-16c0-8.837-7.163-16-16-16m-.242 9.608a3.704 3.704 0 0 1 .819 1.304c.089.285.133.618.133.999-.012.698-.171 1.256-.479 1.675-.151.203-.31.391-.479.563-.187.171-.385.346-.596.523a2.73 2.73 0 0 0-.335.409.89.89 0 0 0-.18.553c0 .202.061.371.185.504.105.127.207.237.306.333l.686.543c.426.336.8.707 1.122 1.112.303.413.46.952.473 1.619 0 .945-.433 1.783-1.298 2.513-.898.755-2.193 1.146-3.885 1.171-1.416-.014-2.474-.305-3.172-.874C8.353 22.022 8 21.386 8 20.645c0-.361.115-.763.344-1.206.223-.444.625-.833 1.209-1.169a6.44 6.44 0 0 1 2.064-.722 16.352 16.352 0 0 1 1.778-.172 4.1 4.1 0 0 1-.39-.593 1.32 1.32 0 0 1-.199-.736c0-.173.025-.316.076-.432l.123-.334a6.01 6.01 0 0 1-.649.038c-1.077-.013-1.897-.34-2.462-.98-.591-.597-.886-1.291-.886-2.084 0-.958.419-1.827 1.256-2.608.574-.456 1.172-.755 1.792-.895a9.009 9.009 0 0 1 1.725-.181h4.044l-1.249.703h-1.247c.127.078.27.189.429.334M24 16.571h-2.286v2.286h-1.142v-2.286h-2.286v-1.143h2.286v-2.286h1.142v2.286H24v1.143z"/></svg><svg width="34" height="34" viewBox="-1 -1 34 34" x="102" y="198" xmlns="http://www.w3.org/2000/svg"><path fill="#F06449" d="M16 .15c-8.837 0-16 7.163-16 16 0 8.836 7.163 16 16 16s16-7.164 16-16c0-8.837-7.163-16-16-16z"/><path fill="#EBEBEB" d="M16.007 14.227h-3.154l-.218-2.442h3.372V9.401H10.03l.057.64.586 6.569h5.334zm0 6.19l-.01.003-2.655-.718-.17-1.9h-2.393l.335 3.742 4.883 1.355.01-.003z"/><path fill="#FFF" d="M15.999 14.227v2.383h2.936l-.278 3.09-2.658.72v2.478l4.887-1.354.036-.401.559-6.277.058-.639h-.642zm0-4.826v2.384h5.758l.047-.535.109-1.209.057-.64z"/></svg><svg width="34" height="34" viewBox="-1 -1 34 34" x="264" y="102" xmlns="http://www.w3.org/2000/svg"><path fill="#F06449" d="M16 0C7.163 0 0 7.163 0 16c0 8.836 7.163 16 16 16s16-7.164 16-16c0-8.837-7.163-16-16-16m-4.418 23.985H8.263V13.317h3.319v10.668zM9.924 11.86a1.922 1.922 0 1 1-.003-3.845 1.922 1.922 0 0 1 .003 3.845M24 23.985h-3.314v-5.188c0-1.237-.022-2.828-1.724-2.828-1.726 0-1.988 1.348-1.988 2.739v5.276h-3.312V13.317h3.178v1.459h.046c.442-.839 1.524-1.724 3.138-1.724 3.356 0 3.977 2.209 3.977 5.082v5.851z"/></svg><svg width="66" height="66" viewBox="-1 -1 66 66" x="198" y="132" xmlns="http://www.w3.org/2000/svg"><path fill="#F06449" d="M31.598.667C14.293.667.266 14.695.266 32.001c0 17.303 14.027 31.332 31.332 31.332 17.306 0 31.334-14.029 31.334-31.332C62.932 14.694 48.904.667 31.598.667m-8.651 46.97h-6.5V26.746h6.5v20.891zM19.7 23.893a3.766 3.766 0 1 1-.005-7.531 3.766 3.766 0 0 1 .005 7.531m27.566 23.744h-6.491V37.478c0-2.421-.045-5.538-3.375-5.538-3.379 0-3.894 2.639-3.894 5.366v10.331H27.02V26.746h6.224v2.855h.089c.866-1.641 2.985-3.374 6.144-3.374 6.574 0 7.789 4.327 7.789 9.953v11.457z"/></svg><svg width="34" height="34" viewBox="-1 -1 34 34" x="170" y="198" xmlns="http://www.w3.org/2000/svg"><path fill="#ECF8F8" d="M30.666 0H1.333C.597 0 0 .598 0 1.333v29.333C0 31.402.597 32 1.333 32h29.333c.736 0 1.334-.598 1.334-1.334V1.333C32 .598 31.402 0 30.666 0M9.493 27.268H4.742V11.996h4.751v15.272zM7.119 9.91a2.751 2.751 0 0 1-2.754-2.754 2.752 2.752 0 1 1 5.505 0A2.753 2.753 0 0 1 7.119 9.91M27.27 27.268h-4.746v-7.426c0-1.771-.03-4.049-2.467-4.049-2.469 0-2.846 1.93-2.846 3.922v7.553H12.47V11.996h4.549v2.088h.064c.634-1.201 2.182-2.467 4.49-2.467 4.807 0 5.693 3.162 5.693 7.275v8.375h.004z"/></svg><svg width="34" height="34" viewBox="-1 -1 34 34" x="68" y="198" xmlns="http://www.w3.org/2000/svg"><g fill="#F06449"><path d="M20.805 19.063v-6.718l-3.356 3.363zm-4.8-2.376a.242.242 0 0 0 .179-.072l4.447-4.449h-9.252l4.447 4.449a.242.242 0 0 0 .179.072z"/><path d="M16.364 16.785c-.099.103-.219.153-.359.153s-.261-.051-.364-.153l-.901-.897-3.361 3.355h9.246l-3.355-3.355-.906.897z"/><path d="M16 0C7.163 0 0 7.163 0 16s7.163 16.001 16 16.001S32 24.837 32 16 24.837 0 16 0zm5.057 19.493H10.949v-7.579h10.108v7.579z"/><path d="M11.2 12.345v6.718l3.36-3.355z"/></g></svg><svg width="66" height="66" viewBox="-1 -1 66 66" x="198" y="66" xmlns="http://www.w3.org/2000/svg"><path fill="#F06449" d="M11.131 16.943h41.537v31.145H11.131V16.943zm14.842 15.589l-13.812-13.82v27.609l13.812-13.789zM12.899 17.975L31.172 36.26c.197.196.443.295.738.295s.541-.099.736-.295l18.277-18.285H12.899zm24.214 15.294l-3.729 3.688c-.408.421-.9.629-1.475.629a2.038 2.038 0 0 1-1.494-.629l-3.707-3.688-13.809 13.786H50.9L37.113 33.269zm.732-.737l13.793 13.789V18.712l-13.793 13.82z"/></svg><svg width="66" height="66" viewBox="-1 -1 66 66" x="198" xmlns="http://www.w3.org/2000/svg"><path fill="#FFF" d="M53.035 31.432c-1.374-1.747-3.009-2.008-3.86-2.008-2.506 0-4.724 1.391-6.5 4.053-1.074-3.603-3.438-5.683-6.607-5.683-3.362 0-5.368 1.529-6.246 2.968a61.133 61.133 0 0 1 1.272-4.722c4.312-1.348 7.881-3.521 10.333-6.295 1.435-1.581 3.841-4.792 3.841-8.519 0-1.854-.484-3.392-1.398-4.446-.914-1.054-2.235-1.611-3.822-1.611-6.348 0-10.617 10.178-12.689 16.646-1.017.076-2.344.24-4.045.497a5.452 5.452 0 0 0-.125.022l-.059.01-.027.005a.22.22 0 0 0-.037.007c-2.514.419-6.581 1.742-9.028 5.878-.414-1.705-1.114-3-1.803-3.787-.665-.761-1.388-1.164-2.089-1.164-1.337 0-2.467 1.371-2.467 2.993 0 .613.075 1.499.709 2.151.7.864 1.375 2.064 1.375 6.002 0 1.979-.992 9.706-1.585 14.324-.404 3.154-.5 3.918-.5 4.162 0 1.706 1.028 2.992 2.393 2.992 1.302 0 2.318-1.03 2.529-2.563l.539-3.617c1.612-10.928 3.134-21.251 10.02-21.734l.025-.002a48.17 48.17 0 0 0 2.445-.318c-1.426 5.677-2.206 11.254-2.206 15.852 0 4.761.949 8.216 2.821 10.27 1.388 1.521 3.21 2.263 5.571 2.263 1.6 0 3.197-.63 4.744-1.87 1.818-1.459 3.423-3.658 4.645-6.361l.021-.051 1.532-4.674c2.334-6.091 4.703-8.263 6.144-8.263.94 0 1.524 2.214 1.524 5.776 0 4.261-.77 9.521-1.44 12.78a1.64 1.64 0 0 0-.11.615c0 1.519 1.077 2.707 2.455 2.707 1.261 0 2.168-.883 2.372-2.307.433-2.32 1.566-8.409 1.566-13.796.002-4.206-.75-7.296-2.233-9.182zM39.911 10.214c.406 0 .515.731.515 1.162 0 1.146-1.063 3.365-2.23 4.653l-.012.013c-1.332 1.522-3.169 2.9-5.142 3.89 2.96-7.117 5.455-9.718 6.869-9.718zm-8.23 24.781c.688 0 1.306-.281 1.787-.813l.023-.028c.667-.798 1.328-1.093 2.439-1.093.397 0 .738.097 1.044.299.993.653 1.562 2.435 1.562 4.881 0 2.914-.732 5.971-2.063 8.608-1.368 2.712-3.213 4.535-4.591 4.535-2.444 0-3.684-2.646-3.684-7.859 0-3.062.429-6.838 1.156-10.564.248 1.165 1.197 2.034 2.327 2.034z"/></svg><svg width="66" height="66" viewBox="-1 -1 66 66" x="132" y="132" xmlns="http://www.w3.org/2000/svg"><path fill="#ECF8F8" d="M53.916 32.448c-1.397-1.611-3.06-1.851-3.925-1.851-2.548 0-4.801 1.282-6.607 3.735-1.09-3.319-3.495-5.236-6.716-5.236-3.417 0-5.455 1.41-6.348 2.735a50.803 50.803 0 0 1 1.294-4.352c4.383-1.242 8.01-3.244 10.503-5.8 1.458-1.457 3.903-4.415 3.903-7.849 0-1.709-.491-3.126-1.421-4.098-.928-.971-2.271-1.484-3.886-1.484-6.45 0-10.792 9.377-12.897 15.336-1.034.071-2.382.223-4.111.46a5.578 5.578 0 0 0-.127.02c-.02.004-.041.006-.061.009l-.028.005-.037.006c-2.555.386-6.69 1.604-9.177 5.417-.42-1.57-1.132-2.765-1.832-3.489-.677-.701-1.411-1.072-2.125-1.072-1.359 0-2.507 1.262-2.507 2.756 0 .566.076 1.383.72 1.983.713.796 1.399 1.902 1.399 5.531 0 1.822-1.008 8.942-1.611 13.197-.411 2.907-.508 3.61-.508 3.836 0 1.571 1.046 2.756 2.432 2.756 1.324 0 2.356-.948 2.572-2.36l.548-3.332c1.638-10.07 3.186-19.581 10.185-20.028l.026-.002a52.905 52.905 0 0 0 2.485-.293c-1.45 5.231-2.242 10.37-2.242 14.606 0 4.386.965 7.569 2.868 9.462 1.41 1.403 3.263 2.085 5.662 2.085 1.627 0 3.249-.579 4.822-1.724 1.848-1.343 3.479-3.37 4.72-5.86l.024-.048 1.556-4.305c2.373-5.613 4.781-7.613 6.245-7.613.957 0 1.551 2.039 1.551 5.32 0 3.927-.785 8.774-1.466 11.777a1.392 1.392 0 0 0-.111.566 2.469 2.469 0 0 0 2.495 2.495c1.282 0 2.204-.814 2.412-2.127.44-2.137 1.592-7.747 1.592-12.712.001-3.872-.764-6.719-2.271-8.458zm-13.34-19.55c.413 0 .522.673.522 1.071 0 1.057-1.081 3.1-2.269 4.288l-.011.012c-1.354 1.402-3.222 2.673-5.227 3.583 3.013-6.557 5.547-8.954 6.985-8.954zM32.21 35.731c.698 0 1.325-.258 1.815-.748l.024-.026c.678-.735 1.351-1.008 2.48-1.008.403 0 .75.091 1.061.276 1.008.604 1.587 2.243 1.587 4.498 0 2.685-.744 5.501-2.097 7.931-1.392 2.499-3.267 4.18-4.666 4.18-2.484 0-3.744-2.437-3.744-7.242 0-2.821.436-6.301 1.176-9.735a2.432 2.432 0 0 0 2.364 1.874z"/></svg><svg width="66" height="66" viewBox="-1 -1 66 66" y="132" xmlns="http://www.w3.org/2000/svg"><g fill="#F06449"><path d="M47.938 32.463l-5.958-5.106h-2.914l-1.135 1.057v8.253h10.007zm-10.007 4.823h10.007v8.588H37.931zM26.636 18.124h10.676v8.614H26.636zm14.622 8.614l-.8-.696-.748.696zM17.61 36.667h8.407v-3.249l-2.269-1.883z"/><path d="M43.734 26.738h4.204v-8.614H37.931v8.099l2.476-2.348zm4.204 3.611v-2.992h-3.481zm-21.302 6.937h10.676v8.588H26.636zm-.619 0h-9.155l-.799.67v7.918h9.954z"/><path d="M32 .209C14.441.209.209 14.438.209 31.999.21 49.557 14.441 63.79 32 63.79c17.558 0 31.79-14.233 31.79-31.791C63.791 14.438 49.558.209 32 .209zm16.969 46.696H15.031V17.093h33.938v29.812z"/><path d="M26.017 31.303v-3.946h-9.954v8.485l7.685-6.422zm11.295-2.295l-7.762 7.349-2.914-2.423v2.733h10.676z"/><path d="M36.745 27.357H26.636v4.461l2.863 2.373zm-20.682-9.233h9.955v8.614h-9.955z"/></g></svg><svg width="66" height="66" viewBox="-1 -1 66 66" x="132" y="66" xmlns="http://www.w3.org/2000/svg"><path fill="#F06449" d="M32 .209C14.441.209.209 14.438.209 31.999.21 49.557 14.441 63.79 32 63.79s31.79-14.233 31.79-31.791C63.791 14.438 49.559.209 32 .209z"/><path d="M17.625 34.999h4.5v14.584h-4.5zm8.083-11.083h4.5v25.667h-4.5zm8.083 1h4.5v24.667h-4.5zm8.084-10.5h4.499v35.167h-4.499z" fill="#FFF"/></svg><svg width="66" height="66" viewBox="-1 -1 66 66" y="66" xmlns="http://www.w3.org/2000/svg"><path fill="#F06449" d="M31.64.416C14.081.416-.152 14.649-.152 32.208c0 17.556 14.233 31.791 31.792 31.791s31.791-14.235 31.791-31.791C63.431 14.649 49.199.416 31.64.416m12.643 25.31c.011.279.02.56.02.843 0 8.618-6.562 18.557-18.559 18.557a18.475 18.475 0 0 1-9.999-2.928c.511.058 1.029.088 1.556.088 3.057 0 5.868-1.041 8.101-2.792a6.526 6.526 0 0 1-6.094-4.528 6.551 6.551 0 0 0 2.947-.113 6.523 6.523 0 0 1-5.231-6.394v-.084a6.503 6.503 0 0 0 2.955.816 6.523 6.523 0 0 1-2.018-8.708c3.216 3.945 8.022 6.544 13.443 6.815a6.633 6.633 0 0 1-.169-1.487 6.522 6.522 0 0 1 11.282-4.462 13.062 13.062 0 0 0 4.144-1.581 6.549 6.549 0 0 1-2.868 3.607 13.064 13.064 0 0 0 3.745-1.026 13.364 13.364 0 0 1-3.255 3.377"/></svg><svg width="34" height="34" viewBox="-1 -1 34 34" x="264" y="68" xmlns="http://www.w3.org/2000/svg"><path fill="#ECF8F8" d="M32 6.076a13.14 13.14 0 0 1-3.771 1.034 6.596 6.596 0 0 0 2.889-3.632 13.203 13.203 0 0 1-4.169 1.593 6.558 6.558 0 0 0-4.794-2.073 6.564 6.564 0 0 0-6.563 6.565c0 .514.058 1.015.17 1.496A18.639 18.639 0 0 1 2.23 4.199 6.517 6.517 0 0 0 1.339 7.5a6.563 6.563 0 0 0 2.92 5.464 6.532 6.532 0 0 1-2.973-.821l-.001.083a6.568 6.568 0 0 0 5.267 6.437 6.62 6.62 0 0 1-2.965.112 6.572 6.572 0 0 0 6.133 4.56 13.162 13.162 0 0 1-8.154 2.812c-.53 0-1.052-.031-1.566-.092a18.586 18.586 0 0 0 10.064 2.948c12.077 0 18.679-10.004 18.679-18.678 0-.285-.007-.568-.019-.85A13.335 13.335 0 0 0 32 6.076"/></svg><svg width="66" height="66" viewBox="-1 -1 66 66" x="66" xmlns="http://www.w3.org/2000/svg"><path fill="#F06449" d="M32 .142C14.446.142.216 14.372.216 31.926.216 49.479 14.445 63.708 32 63.708c17.554 0 31.782-14.229 31.782-31.782C63.783 14.372 49.554.142 32 .142m0 47.674c-8.763 0-15.892-7.129-15.892-15.891 0-8.764 7.129-15.893 15.892-15.893 8.762 0 15.891 7.129 15.891 15.893 0 8.763-7.129 15.891-15.891 15.891"/><path fill="#F06449" d="M41.645 31.203c0-1.766-.635-2.989-1.178-3.94-.725-1.176-1.404-2.174-1.404-3.352 0-1.313.997-2.533 2.4-2.533.063 0 .122.008.184.012a14.227 14.227 0 0 0-9.648-3.754c-4.99 0-9.381 2.563-11.936 6.439.335.011.651.02.919.02 1.494 0 3.808-.184 3.808-.184.768-.043.861 1.087.091 1.178 0 0-.774.092-1.635.137L28.449 40.7l3.126-9.375-2.227-6.1c-.769-.045-1.498-.137-1.498-.137-.771-.045-.679-1.221.092-1.178 0 0 2.357.184 3.762.184 1.494 0 3.809-.184 3.809-.184.771-.043.861 1.087.092 1.178 0 0-.774.092-1.635.137l5.161 15.358 1.427-4.762c.617-1.975 1.087-3.395 1.087-4.618M17.84 32.209c0 5.604 3.255 10.448 7.98 12.742l-6.755-18.507a14.123 14.123 0 0 0-1.225 5.765"/><path fill="#F06449" d="M32.25 33.174l-4.286 12.459c1.279.373 2.634.581 4.036.581 1.663 0 3.26-.288 4.744-.81a1.335 1.335 0 0 1-.103-.199L32.25 33.174zm6.934 11.1c4.245-2.478 7.103-7.079 7.103-12.349 0-2.484-.634-4.821-1.75-6.854.062.454.098.941.098 1.468 0 1.45-.272 3.079-1.088 5.117l-4.363 12.618z"/></svg></svg>