<?xml version="1.0" encoding="utf-8"?>
<!-- Generator: Adobe Illustrator 16.0.0, SVG Export Plug-In . SVG Version: 6.00 Build 0)  -->
<!DOCTYPE svg PUBLIC "-//W3C//DTD SVG 1.1//EN" "http://www.w3.org/Graphics/SVG/1.1/DTD/svg11.dtd" [
	<!ENTITY ns_flows "http://ns.adobe.com/Flows/1.0/">
	<!ENTITY ns_extend "http://ns.adobe.com/Extensibility/1.0/">
	<!ENTITY ns_ai "http://ns.adobe.com/AdobeIllustrator/10.0/">
	<!ENTITY ns_graphs "http://ns.adobe.com/Graphs/1.0/">
]>
<svg version="1.1" id="Layer_1" xmlns:x="&ns_extend;" xmlns:i="&ns_ai;" xmlns:graph="&ns_graphs;"
	 xmlns="http://www.w3.org/2000/svg" xmlns:xlink="http://www.w3.org/1999/xlink" xmlns:a="http://ns.adobe.com/AdobeSVGViewerExtensions/3.0/"
	 x="0px" y="0px" width="32px" height="32px" viewBox="0 0 32 32" enable-background="new 0 0 32 32" xml:space="preserve">
<polygon fill="#F06449" points="9.375,14.85 9.375,17.15 11.095,15.999 "/>
<polygon fill="#F06449" points="9.926,18.437 15.313,22.027 15.313,18.82 12.331,16.827 "/>
<polygon fill="#F06449" points="22.074,13.563 16.688,9.973 16.688,13.18 19.669,15.173 "/>
<polygon fill="#F06449" points="16,14.373 13.568,15.999 16,17.626 18.432,15.999 "/>
<polygon fill="#F06449" points="15.313,13.179 15.313,9.972 9.926,13.563 12.331,15.173 "/>
<polygon fill="#F06449" points="16.688,18.82 16.688,22.027 22.074,18.437 19.669,16.828 "/>
<path fill="#F06449" d="M16,0C7.163,0,0,7.163,0,16c0,8.836,7.163,16,16,16s16-7.164,16-16C32,7.163,24.837,0,16,0 M24,18.438
	c0,0.03-0.002,0.06-0.006,0.09c-0.002,0.01-0.004,0.02-0.006,0.029c-0.003,0.02-0.007,0.039-0.013,0.058
	c-0.003,0.012-0.007,0.022-0.011,0.033c-0.005,0.017-0.011,0.034-0.017,0.051c-0.005,0.011-0.011,0.022-0.017,0.033
	c-0.007,0.016-0.014,0.031-0.022,0.046c-0.006,0.011-0.013,0.021-0.021,0.032c-0.009,0.014-0.018,0.027-0.028,0.041
	c-0.008,0.011-0.016,0.021-0.023,0.029c-0.011,0.014-0.021,0.025-0.034,0.037c-0.009,0.01-0.018,0.02-0.027,0.027
	c-0.013,0.012-0.025,0.022-0.039,0.033c-0.011,0.008-0.021,0.016-0.031,0.022c-0.004,0.003-0.007,0.006-0.011,0.01l-7.313,4.875
	C16.266,23.961,16.133,24,16,24s-0.266-0.039-0.381-0.115L8.306,19.01C8.302,19.006,8.299,19.003,8.295,19
	c-0.011-0.007-0.021-0.015-0.031-0.022c-0.014-0.011-0.026-0.021-0.039-0.033c-0.01-0.008-0.019-0.018-0.027-0.027
	c-0.013-0.012-0.023-0.023-0.034-0.037c-0.008-0.009-0.017-0.019-0.024-0.029c-0.01-0.014-0.019-0.027-0.027-0.041
	c-0.008-0.012-0.015-0.021-0.021-0.032c-0.009-0.015-0.016-0.03-0.022-0.046c-0.007-0.011-0.012-0.022-0.017-0.033
	c-0.007-0.017-0.012-0.034-0.017-0.051c-0.004-0.011-0.008-0.021-0.011-0.033c-0.006-0.019-0.01-0.038-0.013-0.058
	c-0.002-0.01-0.004-0.02-0.006-0.029C8.002,18.497,8,18.468,8,18.438v-4.875c0-0.03,0.002-0.061,0.006-0.09
	c0.002-0.011,0.004-0.02,0.006-0.029c0.003-0.021,0.007-0.039,0.013-0.058c0.003-0.012,0.007-0.022,0.011-0.033
	c0.005-0.018,0.01-0.034,0.017-0.05c0.005-0.013,0.01-0.023,0.017-0.034c0.007-0.017,0.014-0.031,0.022-0.046
	c0.006-0.012,0.013-0.021,0.021-0.032c0.009-0.014,0.018-0.028,0.027-0.041c0.008-0.01,0.017-0.021,0.024-0.03
	c0.011-0.013,0.021-0.024,0.034-0.037c0.009-0.009,0.018-0.019,0.027-0.026c0.013-0.012,0.025-0.022,0.039-0.033
	c0.011-0.008,0.021-0.017,0.031-0.023c0.004-0.003,0.007-0.006,0.011-0.009l7.313-4.875c0.23-0.154,0.531-0.154,0.762,0l7.313,4.875
	c0.004,0.003,0.007,0.006,0.011,0.009c0.011,0.007,0.021,0.016,0.031,0.023c0.014,0.011,0.026,0.021,0.039,0.033
	c0.01,0.008,0.019,0.018,0.027,0.026c0.013,0.013,0.023,0.024,0.034,0.037c0.008,0.01,0.016,0.021,0.023,0.03
	c0.011,0.013,0.02,0.027,0.028,0.041c0.008,0.011,0.015,0.021,0.021,0.032c0.009,0.015,0.016,0.029,0.022,0.046
	c0.006,0.011,0.012,0.021,0.017,0.034c0.006,0.016,0.012,0.032,0.017,0.05c0.004,0.011,0.008,0.021,0.011,0.033
	c0.006,0.019,0.01,0.037,0.013,0.058c0.002,0.01,0.004,0.019,0.006,0.029c0.004,0.029,0.006,0.06,0.006,0.09V18.438z"/>
<polygon fill="#F06449" points="22.625,17.15 22.625,14.85 20.904,15.999 "/>
</svg>
