<?xml version="1.0" encoding="utf-8"?>
<!-- Generator: Adobe Illustrator 16.0.0, SVG Export Plug-In . SVG Version: 6.00 Build 0)  -->
<!DOCTYPE svg PUBLIC "-//W3C//DTD SVG 1.1//EN" "http://www.w3.org/Graphics/SVG/1.1/DTD/svg11.dtd" [
	<!ENTITY ns_flows "http://ns.adobe.com/Flows/1.0/">
	<!ENTITY ns_extend "http://ns.adobe.com/Extensibility/1.0/">
	<!ENTITY ns_ai "http://ns.adobe.com/AdobeIllustrator/10.0/">
	<!ENTITY ns_graphs "http://ns.adobe.com/Graphs/1.0/">
]>
<svg version="1.1" id="Layer_1" xmlns:x="&ns_extend;" xmlns:i="&ns_ai;" xmlns:graph="&ns_graphs;"
	 xmlns="http://www.w3.org/2000/svg" xmlns:xlink="http://www.w3.org/1999/xlink" xmlns:a="http://ns.adobe.com/AdobeSVGViewerExtensions/3.0/"
	 x="0px" y="0px" width="32px" height="32px" viewBox="0 0 32 32" enable-background="new 0 0 32 32" xml:space="preserve">
<path fill="#F06449" d="M16,0.15c-8.837,0-16,7.163-16,16c0,8.836,7.163,16,16,16s16-7.164,16-16C32,7.313,24.837,0.15,16,0.15z"/>
<g>
	<polygon fill="#FFFFFF" points="16.209,11.949 10.498,14.328 10.688,16.683 16.209,14.322 22.082,11.811 22.326,9.401 	"/>
	<linearGradient id="SVGID_1_" gradientUnits="userSpaceOnUse" x1="13.3535" y1="16.6826" x2="13.3535" y2="11.9492">
		<stop  offset="0.3865" style="stop-color:#D0D2D3;stop-opacity:0"/>
		<stop  offset="1" style="stop-color:#D0D2D3"/>
		<a:midPointStop  offset="0.3865" style="stop-color:#D0D2D3;stop-opacity:0"/>
		<a:midPointStop  offset="0.5" style="stop-color:#D0D2D3;stop-opacity:0"/>
		<a:midPointStop  offset="1" style="stop-color:#D0D2D3"/>
	</linearGradient>
	<polygon fill="url(#SVGID_1_)" points="10.498,14.328 10.688,16.683 16.209,14.322 16.209,11.949 	"/>
	<linearGradient id="SVGID_2_" gradientUnits="userSpaceOnUse" x1="19.2676" y1="14.3218" x2="19.2676" y2="9.4014">
		<stop  offset="0.3865" style="stop-color:#D0D2D3;stop-opacity:0"/>
		<stop  offset="1" style="stop-color:#D0D2D3"/>
		<a:midPointStop  offset="0.3865" style="stop-color:#D0D2D3;stop-opacity:0"/>
		<a:midPointStop  offset="0.5" style="stop-color:#D0D2D3;stop-opacity:0"/>
		<a:midPointStop  offset="1" style="stop-color:#D0D2D3"/>
	</linearGradient>
	<polygon fill="url(#SVGID_2_)" points="22.326,9.401 16.209,11.949 16.209,14.322 22.082,11.811 	"/>
	<linearGradient id="SVGID_3_" gradientUnits="userSpaceOnUse" x1="10.5068" y1="18.7939" x2="21.875" y2="18.7939">
		<stop  offset="0" style="stop-color:#E7E6E5"/>
		<stop  offset="1" style="stop-color:#FFFFFF"/>
		<a:midPointStop  offset="0" style="stop-color:#E7E6E5"/>
		<a:midPointStop  offset="0.5" style="stop-color:#E7E6E5"/>
		<a:midPointStop  offset="1" style="stop-color:#FFFFFF"/>
	</linearGradient>
	<polygon fill="url(#SVGID_3_)" points="10.507,14.328 10.696,16.683 19.168,16.71 18.979,19.85 16.191,20.634 13.511,19.957 
		13.349,18.009 10.859,18.009 11.184,21.771 16.219,23.26 21.227,21.798 21.875,14.328 	"/>
	<g opacity="0.05">
		<polygon fill="#231F20" points="16.209,14.328 10.498,14.328 10.688,16.683 16.209,16.7 		"/>
		<polygon fill="#231F20" points="16.209,20.626 16.182,20.634 13.502,19.957 13.34,18.009 10.85,18.009 11.175,21.771 
			16.209,23.26 		"/>
	</g>
	<linearGradient id="SVGID_4_" gradientUnits="userSpaceOnUse" x1="9.9839" y1="10.606" x2="22.3262" y2="10.606">
		<stop  offset="0" style="stop-color:#E7E6E5"/>
		<stop  offset="1" style="stop-color:#FFFFFF"/>
		<a:midPointStop  offset="0" style="stop-color:#E7E6E5"/>
		<a:midPointStop  offset="0.5" style="stop-color:#E7E6E5"/>
		<a:midPointStop  offset="1" style="stop-color:#FFFFFF"/>
	</linearGradient>
	<polygon fill="url(#SVGID_4_)" points="9.984,9.401 22.326,9.401 22.082,11.811 10.282,11.811 	"/>
	<polygon opacity="0.05" fill="#231F20" points="16.209,9.401 9.984,9.401 10.282,11.811 16.209,11.811 	"/>
</g>
</svg>
