<?xml version="1.0" encoding="utf-8"?>
<!-- Generator: Adobe Illustrator 16.0.0, SVG Export Plug-In . SVG Version: 6.00 Build 0)  -->
<!DOCTYPE svg PUBLIC "-//W3C//DTD SVG 1.1//EN" "http://www.w3.org/Graphics/SVG/1.1/DTD/svg11.dtd" [
	<!ENTITY ns_flows "http://ns.adobe.com/Flows/1.0/">
	<!ENTITY ns_extend "http://ns.adobe.com/Extensibility/1.0/">
	<!ENTITY ns_ai "http://ns.adobe.com/AdobeIllustrator/10.0/">
	<!ENTITY ns_graphs "http://ns.adobe.com/Graphs/1.0/">
]>
<svg version="1.1" id="Layer_1" xmlns:x="&ns_extend;" xmlns:i="&ns_ai;" xmlns:graph="&ns_graphs;"
	 xmlns="http://www.w3.org/2000/svg" xmlns:xlink="http://www.w3.org/1999/xlink" xmlns:a="http://ns.adobe.com/AdobeSVGViewerExtensions/3.0/"
	 x="0px" y="0px" width="64px" height="64px" viewBox="0 0 64 64" enable-background="new 0 0 64 64" xml:space="preserve">
<g>
	<path fill="#F06449" d="M44.359,20.466c-0.539,0.301-1.229,0.679-2.067,1.135l-4.167,2.208c-4.446,2.363-7.286,4.358-8.52,5.985
		l-0.171,0.218c1.347,0.85,2.207,1.964,2.58,3.343l0.296-0.14c1.959-0.829,4.498-2.918,7.618-6.266l3.42-3.67
		c0.777-0.818,1.622-1.777,2.534-2.876c0.052-0.063,0.182-0.207,0.389-0.436l-0.295-0.326
		C45.561,19.808,45.022,20.082,44.359,20.466z"/>
	<path fill="#F06449" d="M27.988,31.862l-3.063,3.7c0.301,0.113,0.487,0.337,0.56,0.668l4.399-2.021
		C29.583,33.267,28.952,32.483,27.988,31.862z"/>
	<path fill="#F06449" d="M32,0.209c-17.559,0-31.79,14.229-31.79,31.79C0.209,49.557,14.441,63.79,32,63.79
		c17.558,0,31.79-14.233,31.79-31.791C63.79,14.438,49.557,0.209,32,0.209z M45.68,21.787c-0.383,0.436-0.787,0.901-1.212,1.399
		c-0.373,0.425-0.648,0.73-0.824,0.917l-4.104,4.338c-2.457,2.633-4.654,4.39-6.592,5.271l-7.276,3.28
		c-0.487,2.851-2.104,4.275-4.851,4.275h-0.513c-1.39,0-2.482,0.606-3.281,1.819c0.146-2.436,0.845-4.338,2.1-5.706
		c1.254-1.368,2.975-2.104,5.161-2.207l4.944-6.126c1.315-1.627,3.519-3.265,6.607-4.913l5.908-3.156
		c2.57-1.378,4.031-2.067,4.384-2.067c0.56,0,0.84,0.259,0.84,0.777C46.971,20.113,46.541,20.813,45.68,21.787z"/>
</g>
</svg>
