<?xml version="1.0" encoding="utf-8"?>
<!-- Generator: Adobe Illustrator 16.0.0, SVG Export Plug-In . SVG Version: 6.00 Build 0)  -->
<!DOCTYPE svg PUBLIC "-//W3C//DTD SVG 1.1//EN" "http://www.w3.org/Graphics/SVG/1.1/DTD/svg11.dtd" [
	<!ENTITY ns_flows "http://ns.adobe.com/Flows/1.0/">
	<!ENTITY ns_extend "http://ns.adobe.com/Extensibility/1.0/">
	<!ENTITY ns_ai "http://ns.adobe.com/AdobeIllustrator/10.0/">
	<!ENTITY ns_graphs "http://ns.adobe.com/Graphs/1.0/">
]>
<svg version="1.1" id="Layer_1" xmlns:x="&ns_extend;" xmlns:i="&ns_ai;" xmlns:graph="&ns_graphs;"
	 xmlns="http://www.w3.org/2000/svg" xmlns:xlink="http://www.w3.org/1999/xlink" xmlns:a="http://ns.adobe.com/AdobeSVGViewerExtensions/3.0/"
	 x="0px" y="0px" width="32px" height="32px" viewBox="0 0 32 32" enable-background="new 0 0 32 32" xml:space="preserve">
<path fill="#ECF8F8" d="M30.666,0H1.334C0.597,0,0,0.598,0,1.333v29.334C0,31.402,0.597,32,1.334,32H17V20h-4v-5h4v-4
	c0-4.133,2.617-6.167,6.305-6.167c1.766,0,3.283,0.132,3.725,0.19v4.319l-2.557,0.001c-2.005,0-2.473,0.953-2.473,2.352V15h5l-1,5
	h-4l0.08,12h8.586C31.402,32,32,31.402,32,30.667V1.333C32,0.598,31.402,0,30.666,0"/>
</svg>
