<?xml version="1.0" encoding="utf-8"?>
<!-- Generator: Adobe Illustrator 16.0.0, SVG Export Plug-In . SVG Version: 6.00 Build 0)  -->
<!DOCTYPE svg PUBLIC "-//W3C//DTD SVG 1.1//EN" "http://www.w3.org/Graphics/SVG/1.1/DTD/svg11.dtd" [
	<!ENTITY ns_flows "http://ns.adobe.com/Flows/1.0/">
	<!ENTITY ns_extend "http://ns.adobe.com/Extensibility/1.0/">
	<!ENTITY ns_ai "http://ns.adobe.com/AdobeIllustrator/10.0/">
	<!ENTITY ns_graphs "http://ns.adobe.com/Graphs/1.0/">
]>
<svg version="1.1" id="Layer_1" xmlns:x="&ns_extend;" xmlns:i="&ns_ai;" xmlns:graph="&ns_graphs;"
	 xmlns="http://www.w3.org/2000/svg" xmlns:xlink="http://www.w3.org/1999/xlink" xmlns:a="http://ns.adobe.com/AdobeSVGViewerExtensions/3.0/"
	 x="0px" y="0px" width="64px" height="64px" viewBox="0 0 64 64" enable-background="new 0 0 64 64" xml:space="preserve">
<path fill="#F06449" d="M31.849,0.5C14.338,0.5,0.141,14.695,0.141,32.209c0,17.509,14.197,31.707,31.708,31.707
	c17.514,0,31.709-14.198,31.709-31.707C63.558,14.695,49.363,0.5,31.849,0.5 M40.083,21.617l-2.985,0.003
	c-2.341,0-2.795,1.11-2.795,2.741v3.602h5.586L39.161,33.6h-4.857v14.462h-5.82V33.6h-4.865v-5.637h4.865v-4.158
	c0-4.825,2.948-7.451,7.25-7.451c2.062,0,3.835,0.152,4.351,0.223V21.617z"/>
</svg>
