<?xml version="1.0" encoding="utf-8"?>
<!-- Generator: Adobe Illustrator 16.0.0, SVG Export Plug-In . SVG Version: 6.00 Build 0)  -->
<!DOCTYPE svg PUBLIC "-//W3C//DTD SVG 1.1//EN" "http://www.w3.org/Graphics/SVG/1.1/DTD/svg11.dtd" [
	<!ENTITY ns_flows "http://ns.adobe.com/Flows/1.0/">
	<!ENTITY ns_extend "http://ns.adobe.com/Extensibility/1.0/">
	<!ENTITY ns_ai "http://ns.adobe.com/AdobeIllustrator/10.0/">
	<!ENTITY ns_graphs "http://ns.adobe.com/Graphs/1.0/">
]>
<svg version="1.1" id="Layer_1" xmlns:x="&ns_extend;" xmlns:i="&ns_ai;" xmlns:graph="&ns_graphs;"
	 xmlns="http://www.w3.org/2000/svg" xmlns:xlink="http://www.w3.org/1999/xlink" xmlns:a="http://ns.adobe.com/AdobeSVGViewerExtensions/3.0/"
	 x="0px" y="0px" width="32px" height="32px" viewBox="0 0 32 32" enable-background="new 0 0 32 32" xml:space="preserve">
<path fill="#F06449" d="M16,0C7.163,0,0,7.163,0,16c0,8.836,7.163,16,16,16c8.835,0,16-7.164,16-16C32,7.163,24.836,0,16,0
	 M18.274,22.385c0,0-1.082,0.131-2.274,0.131c-1.192,0-2.288-0.121-2.288-0.121C10.927,22.078,8,21.002,8,16.197
	c0-1.369,0.488-2.488,1.29-3.365c-0.128-0.317-0.559-1.592,0.123-3.319c0,0,1.053-0.337,3.449,1.286
	c1-0.277,2.073-0.417,3.139-0.422c1.065,0.005,2.137,0.145,3.139,0.422c2.395-1.623,3.445-1.286,3.445-1.286
	c0.685,1.728,0.254,3.002,0.125,3.319C23.514,13.709,24,14.828,24,16.197C24,21.014,21.068,22.075,18.274,22.385"/>
</svg>
