<?xml version="1.0" encoding="utf-8"?>
<!-- Generator: Adobe Illustrator 16.0.0, SVG Export Plug-In . SVG Version: 6.00 Build 0)  -->
<!DOCTYPE svg PUBLIC "-//W3C//DTD SVG 1.1//EN" "http://www.w3.org/Graphics/SVG/1.1/DTD/svg11.dtd" [
	<!ENTITY ns_flows "http://ns.adobe.com/Flows/1.0/">
	<!ENTITY ns_extend "http://ns.adobe.com/Extensibility/1.0/">
	<!ENTITY ns_ai "http://ns.adobe.com/AdobeIllustrator/10.0/">
	<!ENTITY ns_graphs "http://ns.adobe.com/Graphs/1.0/">
]>
<svg version="1.1" id="Layer_1" xmlns:x="&ns_extend;" xmlns:i="&ns_ai;" xmlns:graph="&ns_graphs;"
	 xmlns="http://www.w3.org/2000/svg" xmlns:xlink="http://www.w3.org/1999/xlink" xmlns:a="http://ns.adobe.com/AdobeSVGViewerExtensions/3.0/"
	 x="0px" y="0px" width="64px" height="64px" viewBox="0 0 64 64" enable-background="new 0 0 64 64" xml:space="preserve">
<path fill="#F06449" d="M32,0.449c-17.426,0-31.55,14.126-31.55,31.55c0,17.425,14.125,31.552,31.55,31.552
	c17.424,0,31.551-14.127,31.551-31.552C63.55,14.575,49.423,0.449,32,0.449 M36.484,44.591c0,0-2.133,0.258-4.484,0.258
	s-4.511-0.238-4.511-0.238c-5.492-0.625-11.264-2.746-11.264-12.222c0-2.699,0.962-4.907,2.544-6.636
	c-0.253-0.626-1.103-3.14,0.242-6.547c0,0,2.077-0.664,6.801,2.537c1.972-0.546,4.088-0.822,6.19-0.831
	c2.101,0.009,4.216,0.285,6.191,0.831c4.721-3.201,6.794-2.537,6.794-2.537c1.35,3.407,0.499,5.921,0.245,6.547
	c1.583,1.729,2.542,3.937,2.542,6.636C47.774,41.888,41.993,43.979,36.484,44.591"/>
</svg>
