<?xml version="1.0" encoding="utf-8"?>
<!-- Generator: Adobe Illustrator 16.0.0, SVG Export Plug-In . SVG Version: 6.00 Build 0)  -->
<!DOCTYPE svg PUBLIC "-//W3C//DTD SVG 1.1//EN" "http://www.w3.org/Graphics/SVG/1.1/DTD/svg11.dtd" [
	<!ENTITY ns_flows "http://ns.adobe.com/Flows/1.0/">
	<!ENTITY ns_extend "http://ns.adobe.com/Extensibility/1.0/">
	<!ENTITY ns_ai "http://ns.adobe.com/AdobeIllustrator/10.0/">
	<!ENTITY ns_graphs "http://ns.adobe.com/Graphs/1.0/">
]>
<svg version="1.1" id="Layer_1" xmlns:x="&ns_extend;" xmlns:i="&ns_ai;" xmlns:graph="&ns_graphs;"
	 xmlns="http://www.w3.org/2000/svg" xmlns:xlink="http://www.w3.org/1999/xlink" xmlns:a="http://ns.adobe.com/AdobeSVGViewerExtensions/3.0/"
	 x="0px" y="0px" width="32px" height="32px" viewBox="0 0 32 32" enable-background="new 0 0 32 32" xml:space="preserve">
<path fill="#F06449" d="M16,0C7.163,0,0,7.163,0,16c0,8.836,7.163,16,16,16s16-7.164,16-16C32,7.163,24.837,0,16,0 M15.758,9.608
	c0.152,0.152,0.301,0.339,0.447,0.561c0.14,0.211,0.264,0.457,0.372,0.743c0.089,0.285,0.133,0.618,0.133,0.999
	c-0.012,0.698-0.171,1.256-0.479,1.675c-0.151,0.203-0.31,0.391-0.479,0.563c-0.187,0.171-0.385,0.346-0.596,0.523
	c-0.121,0.12-0.232,0.257-0.335,0.409c-0.12,0.158-0.18,0.343-0.18,0.553c0,0.202,0.061,0.371,0.185,0.504
	c0.105,0.127,0.207,0.237,0.306,0.333l0.686,0.543c0.426,0.336,0.8,0.707,1.122,1.112c0.303,0.413,0.46,0.952,0.473,1.619
	c0,0.945-0.433,1.783-1.298,2.513c-0.898,0.755-2.193,1.146-3.885,1.171c-1.416-0.014-2.474-0.305-3.172-0.874
	C8.353,22.022,8,21.386,8,20.645c0-0.361,0.115-0.763,0.344-1.206c0.223-0.444,0.625-0.833,1.209-1.169
	c0.655-0.361,1.343-0.602,2.064-0.722c0.713-0.102,1.306-0.158,1.778-0.172c-0.146-0.185-0.276-0.382-0.39-0.593
	c-0.133-0.204-0.199-0.45-0.199-0.736c0-0.173,0.025-0.316,0.076-0.432c0.044-0.121,0.085-0.231,0.123-0.334
	c-0.229,0.025-0.446,0.038-0.649,0.038c-1.077-0.013-1.897-0.34-2.462-0.98c-0.591-0.597-0.886-1.291-0.886-2.084
	c0-0.958,0.419-1.827,1.256-2.608c0.574-0.456,1.172-0.755,1.792-0.895c0.613-0.12,1.188-0.181,1.725-0.181h4.044l-1.249,0.703
	h-1.247C15.456,9.352,15.599,9.463,15.758,9.608 M24,16.571h-2.286v2.286h-1.142v-2.286h-2.286v-1.143h2.286v-2.286h1.142v2.286H24
	V16.571z"/>
</svg>
