<?xml version="1.0" encoding="utf-8"?>
<!-- Generator: Adobe Illustrator 16.0.0, SVG Export Plug-In . SVG Version: 6.00 Build 0)  -->
<!DOCTYPE svg PUBLIC "-//W3C//DTD SVG 1.1//EN" "http://www.w3.org/Graphics/SVG/1.1/DTD/svg11.dtd" [
	<!ENTITY ns_flows "http://ns.adobe.com/Flows/1.0/">
	<!ENTITY ns_extend "http://ns.adobe.com/Extensibility/1.0/">
	<!ENTITY ns_ai "http://ns.adobe.com/AdobeIllustrator/10.0/">
	<!ENTITY ns_graphs "http://ns.adobe.com/Graphs/1.0/">
]>
<svg version="1.1" id="Layer_1" xmlns:x="&ns_extend;" xmlns:i="&ns_ai;" xmlns:graph="&ns_graphs;"
	 xmlns="http://www.w3.org/2000/svg" xmlns:xlink="http://www.w3.org/1999/xlink" xmlns:a="http://ns.adobe.com/AdobeSVGViewerExtensions/3.0/"
	 x="0px" y="0px" width="32px" height="32px" viewBox="0 0 32 32" enable-background="new 0 0 32 32" xml:space="preserve">
<path fill="#F06449" d="M16,0.15c-8.837,0-16,7.163-16,16c0,8.836,7.163,16,16,16s16-7.164,16-16C32,7.313,24.837,0.15,16,0.15z"/>
<g>
	<polygon fill="#EBEBEB" points="16.007,14.227 12.853,14.227 12.635,11.785 16.007,11.785 16.007,9.401 15.999,9.401 10.03,9.401 
		10.087,10.041 10.673,16.61 16.007,16.61 	"/>
	<polygon fill="#EBEBEB" points="16.007,20.417 15.997,20.42 13.342,19.702 13.172,17.802 11.882,17.802 10.779,17.802 
		11.114,21.544 15.997,22.899 16.007,22.896 	"/>
	<polygon fill="#FFFFFF" points="15.999,14.227 15.999,16.61 18.935,16.61 18.657,19.7 15.999,20.42 15.999,22.898 20.886,21.544 
		20.922,21.143 21.481,14.866 21.539,14.227 20.897,14.227 	"/>
	<polygon fill="#FFFFFF" points="15.999,9.401 15.999,10.882 15.999,11.779 15.999,11.785 21.749,11.785 21.749,11.785 
		21.757,11.785 21.804,11.25 21.913,10.041 21.97,9.401 	"/>
</g>
</svg>
