<?xml version="1.0" encoding="utf-8"?>
<!-- Generator: Adobe Illustrator 16.0.0, SVG Export Plug-In . SVG Version: 6.00 Build 0)  -->
<!DOCTYPE svg PUBLIC "-//W3C//DTD SVG 1.1//EN" "http://www.w3.org/Graphics/SVG/1.1/DTD/svg11.dtd">
<svg version="1.1" id="Layer_1" xmlns="http://www.w3.org/2000/svg" xmlns:xlink="http://www.w3.org/1999/xlink" x="0px" y="0px"
	 width="595.28px" height="1192px" viewBox="0 0 595.28 1192" enable-background="new 0 0 595.28 1192" xml:space="preserve">
<path fill="#EF6449" d="M-1921.579,817.417c-2.847-3.867-6.234-4.444-8-4.444c-5.191,0-9.784,3.078-13.466,8.969
	c-2.223-7.971-7.124-12.575-13.69-12.575c-6.965,0-11.12,3.385-12.939,6.569c0.774-3.621,1.661-7.154,2.637-10.451
	c8.935-2.983,16.327-7.793,21.41-13.932c2.971-3.499,7.956-10.604,7.956-18.852c0-4.105-1-7.508-2.895-9.841
	c-1.893-2.332-4.632-3.564-7.922-3.564c-13.149,0-21.997,22.524-26.29,36.837c-2.107,0.171-4.855,0.534-8.38,1.104
	c-0.086,0.014-0.173,0.03-0.259,0.047c-0.042,0.009-0.083,0.017-0.124,0.023l-0.056,0.01c-0.026,0.005-0.052,0.01-0.077,0.015
	c-5.208,0.929-13.636,3.854-18.706,13.01c-0.855-3.771-2.308-6.639-3.733-8.38c-1.379-1.685-2.877-2.576-4.331-2.576
	c-2.77,0-5.111,3.031-5.111,6.62c0,1.36,0.155,3.319,1.469,4.764c1.452,1.911,2.851,4.568,2.851,13.285
	c0,4.376-2.056,21.48-3.284,31.698c-0.84,6.984-1.036,8.672-1.036,9.215c0,3.773,2.131,6.619,4.957,6.619
	c2.698,0,4.803-2.278,5.243-5.671l1.117-8.003c3.339-24.187,6.493-47.032,20.761-48.104l0.052-0.004
	c0.515-0.057,2.606-0.292,5.067-0.703c-2.956,12.563-4.569,24.906-4.569,35.08c0,10.537,1.967,18.185,5.846,22.728
	c2.875,3.37,6.65,5.007,11.54,5.007c3.317,0,6.625-1.392,9.831-4.138c3.767-3.228,7.093-8.095,9.621-14.077l0.048-0.114
	l3.171-10.342c4.838-13.48,9.748-18.285,12.73-18.285c1.95,0,3.161,4.898,3.161,12.781c0,9.43-1.6,21.072-2.987,28.285
	c-0.198,0.562-0.228,1.001-0.228,1.362c0,3.359,2.234,5.992,5.086,5.992c2.614,0,4.494-1.955,4.917-5.107
	c0.897-5.134,3.244-18.608,3.244-30.532C-1916.946,828.43-1918.505,821.593-1921.579,817.417z M-1948.769,770.459
	c0.84,0,1.064,1.616,1.064,2.572c0,2.537-2.204,7.447-4.624,10.299l-0.022,0.027c-2.761,3.369-6.565,6.42-10.652,8.609
	C-1956.866,776.217-1951.699,770.459-1948.769,770.459z M-1965.82,825.304c1.423,0,2.703-0.621,3.699-1.798l0.051-0.063
	c1.382-1.765,2.752-2.421,5.056-2.421c0.82,0,1.527,0.218,2.161,0.664c2.056,1.447,3.234,5.385,3.234,10.803
	c0,6.447-1.518,13.212-4.273,19.046c-2.835,6.006-6.657,10.041-9.51,10.041c-5.064,0-7.632-5.854-7.632-17.396
	c0-6.774,0.888-15.132,2.396-23.382C-1970.128,823.377-1968.161,825.304-1965.82,825.304z"/>
</svg>
