<?xml version="1.0" encoding="utf-8"?>
<!-- Generator: Adobe Illustrator 16.0.0, SVG Export Plug-In . SVG Version: 6.00 Build 0)  -->
<!DOCTYPE svg PUBLIC "-//W3C//DTD SVG 1.1//EN" "http://www.w3.org/Graphics/SVG/1.1/DTD/svg11.dtd" [
	<!ENTITY ns_flows "http://ns.adobe.com/Flows/1.0/">
	<!ENTITY ns_extend "http://ns.adobe.com/Extensibility/1.0/">
	<!ENTITY ns_ai "http://ns.adobe.com/AdobeIllustrator/10.0/">
	<!ENTITY ns_graphs "http://ns.adobe.com/Graphs/1.0/">
]>
<svg version="1.1" id="Layer_1" xmlns:x="&ns_extend;" xmlns:i="&ns_ai;" xmlns:graph="&ns_graphs;"
	 xmlns="http://www.w3.org/2000/svg" xmlns:xlink="http://www.w3.org/1999/xlink" xmlns:a="http://ns.adobe.com/AdobeSVGViewerExtensions/3.0/"
	 x="0px" y="0px" width="32px" height="32px" viewBox="0 0 32 32" enable-background="new 0 0 32 32" xml:space="preserve">
<path fill="#ECF8F8" d="M30.666,0H1.333C0.597,0,0,0.598,0,1.333v29.333C0,31.402,0.597,32,1.333,32h29.333
	C31.402,32,32,31.402,32,30.666V1.333C32,0.598,31.402,0,30.666,0 M9.493,27.268H4.742V11.996h4.751V27.268z M7.119,9.91
	c-1.525,0-2.754-1.233-2.754-2.754c0-1.518,1.229-2.752,2.754-2.752c1.518,0,2.751,1.234,2.751,2.752
	C9.87,8.677,8.637,9.91,7.119,9.91 M27.27,27.268h-4.746v-7.426c0-1.771-0.03-4.049-2.467-4.049c-2.469,0-2.846,1.93-2.846,3.922
	v7.553H12.47V11.996h4.549v2.088h0.064c0.634-1.201,2.182-2.467,4.49-2.467c4.807,0,5.693,3.162,5.693,7.275v8.375H27.27z"/>
</svg>
