<?xml version="1.0" encoding="utf-8"?>
<!-- Generator: Adobe Illustrator 16.0.0, SVG Export Plug-In . SVG Version: 6.00 Build 0)  -->
<!DOCTYPE svg PUBLIC "-//W3C//DTD SVG 1.1//EN" "http://www.w3.org/Graphics/SVG/1.1/DTD/svg11.dtd" [
	<!ENTITY ns_flows "http://ns.adobe.com/Flows/1.0/">
	<!ENTITY ns_extend "http://ns.adobe.com/Extensibility/1.0/">
	<!ENTITY ns_ai "http://ns.adobe.com/AdobeIllustrator/10.0/">
	<!ENTITY ns_graphs "http://ns.adobe.com/Graphs/1.0/">
]>
<svg version="1.1" id="Layer_1" xmlns:x="&ns_extend;" xmlns:i="&ns_ai;" xmlns:graph="&ns_graphs;"
	 xmlns="http://www.w3.org/2000/svg" xmlns:xlink="http://www.w3.org/1999/xlink" xmlns:a="http://ns.adobe.com/AdobeSVGViewerExtensions/3.0/"
	 x="0px" y="0px" width="64px" height="64px" viewBox="0 0 64 64" enable-background="new 0 0 64 64" xml:space="preserve">
<path fill="#F06449" d="M31.598,0.667c-17.305,0-31.332,14.028-31.332,31.334c0,17.303,14.027,31.332,31.332,31.332
	c17.306,0,31.334-14.029,31.334-31.332C62.932,14.694,48.904,0.667,31.598,0.667 M22.947,47.637h-6.5V26.746h6.5V47.637z
	 M19.7,23.893c-2.085,0-3.768-1.688-3.768-3.766c0-2.078,1.682-3.766,3.768-3.766c2.076,0,3.763,1.688,3.763,3.766
	C23.462,22.204,21.776,23.893,19.7,23.893 M47.266,47.637h-6.491V37.478c0-2.421-0.045-5.538-3.375-5.538
	c-3.379,0-3.894,2.639-3.894,5.366v10.331h-6.486V26.746h6.224v2.855h0.089c0.866-1.641,2.985-3.374,6.144-3.374
	c6.574,0,7.789,4.327,7.789,9.953V47.637z"/>
</svg>
