<?xml version="1.0" encoding="utf-8"?>
<!-- Generator: Adobe Illustrator 16.0.0, SVG Export Plug-In . SVG Version: 6.00 Build 0)  -->
<!DOCTYPE svg PUBLIC "-//W3C//DTD SVG 1.1//EN" "http://www.w3.org/Graphics/SVG/1.1/DTD/svg11.dtd" [
	<!ENTITY ns_flows "http://ns.adobe.com/Flows/1.0/">
	<!ENTITY ns_extend "http://ns.adobe.com/Extensibility/1.0/">
	<!ENTITY ns_ai "http://ns.adobe.com/AdobeIllustrator/10.0/">
	<!ENTITY ns_graphs "http://ns.adobe.com/Graphs/1.0/">
]>
<svg version="1.1" id="Layer_1" xmlns:x="&ns_extend;" xmlns:i="&ns_ai;" xmlns:graph="&ns_graphs;"
	 xmlns="http://www.w3.org/2000/svg" xmlns:xlink="http://www.w3.org/1999/xlink" xmlns:a="http://ns.adobe.com/AdobeSVGViewerExtensions/3.0/"
	 x="0px" y="0px" width="32px" height="32px" viewBox="0 0 32 32" enable-background="new 0 0 32 32" xml:space="preserve">
<path fill="#F06449" d="M16,0C7.163,0,0,7.163,0,16c0,8.836,7.163,16,16,16s16-7.164,16-16C32,7.163,24.837,0,16,0 M11.582,23.985
	H8.263V13.317h3.319V23.985z M9.924,11.86C8.859,11.86,8,10.998,8,9.938c0-1.062,0.859-1.923,1.924-1.923
	c1.06,0,1.921,0.861,1.921,1.923C11.845,10.998,10.984,11.86,9.924,11.86 M24,23.985h-3.314v-5.188c0-1.237-0.022-2.828-1.724-2.828
	c-1.726,0-1.988,1.348-1.988,2.739v5.276h-3.312V13.317h3.178v1.459h0.046c0.442-0.839,1.524-1.724,3.138-1.724
	c3.356,0,3.977,2.209,3.977,5.082V23.985z"/>
</svg>
