<?xml version="1.0" encoding="utf-8"?>
<!-- Generator: Adobe Illustrator 16.0.0, SVG Export Plug-In . SVG Version: 6.00 Build 0)  -->
<!DOCTYPE svg PUBLIC "-//W3C//DTD SVG 1.1//EN" "http://www.w3.org/Graphics/SVG/1.1/DTD/svg11.dtd" [
	<!ENTITY ns_flows "http://ns.adobe.com/Flows/1.0/">
	<!ENTITY ns_extend "http://ns.adobe.com/Extensibility/1.0/">
	<!ENTITY ns_ai "http://ns.adobe.com/AdobeIllustrator/10.0/">
	<!ENTITY ns_graphs "http://ns.adobe.com/Graphs/1.0/">
]>
<svg version="1.1" id="Layer_1" xmlns:x="&ns_extend;" xmlns:i="&ns_ai;" xmlns:graph="&ns_graphs;"
	 xmlns="http://www.w3.org/2000/svg" xmlns:xlink="http://www.w3.org/1999/xlink" xmlns:a="http://ns.adobe.com/AdobeSVGViewerExtensions/3.0/"
	 x="0px" y="0px" width="64px" height="64px" viewBox="0 0 64 64" enable-background="new 0 0 64 64" xml:space="preserve">
<g>
	<path fill="#F06449" d="M11.131,16.943h41.537v31.145H11.131V16.943z M25.973,32.532l-13.812-13.82v27.609L25.973,32.532z
		 M12.899,17.975L31.172,36.26c0.197,0.196,0.443,0.295,0.738,0.295s0.541-0.099,0.736-0.295l18.277-18.285H12.899z M37.113,33.269
		l-3.729,3.688c-0.408,0.421-0.9,0.629-1.475,0.629c-0.574,0-1.075-0.208-1.494-0.629l-3.707-3.688L12.899,47.055H50.9
		L37.113,33.269z M37.845,32.532l13.793,13.789V18.712L37.845,32.532z"/>
</g>
</svg>
