<?xml version="1.0" encoding="utf-8"?>
<!-- Generator: Adobe Illustrator 16.0.0, SVG Export Plug-In . SVG Version: 6.00 Build 0)  -->
<!DOCTYPE svg PUBLIC "-//W3C//DTD SVG 1.1//EN" "http://www.w3.org/Graphics/SVG/1.1/DTD/svg11.dtd" [
	<!ENTITY ns_flows "http://ns.adobe.com/Flows/1.0/">
	<!ENTITY ns_extend "http://ns.adobe.com/Extensibility/1.0/">
	<!ENTITY ns_ai "http://ns.adobe.com/AdobeIllustrator/10.0/">
	<!ENTITY ns_graphs "http://ns.adobe.com/Graphs/1.0/">
]>
<svg version="1.1" id="Layer_1" xmlns:x="&ns_extend;" xmlns:i="&ns_ai;" xmlns:graph="&ns_graphs;"
	 xmlns="http://www.w3.org/2000/svg" xmlns:xlink="http://www.w3.org/1999/xlink" xmlns:a="http://ns.adobe.com/AdobeSVGViewerExtensions/3.0/"
	 x="0px" y="0px" width="64px" height="64px" viewBox="0 0 64 64" enable-background="new 0 0 64 64" xml:space="preserve">
<path fill="#FFFFFF" d="M53.035,31.432c-1.374-1.747-3.009-2.008-3.86-2.008c-2.506,0-4.724,1.391-6.5,4.053
	c-1.074-3.603-3.438-5.683-6.607-5.683c-3.362,0-5.368,1.529-6.246,2.968c0.374-1.636,0.802-3.231,1.272-4.722
	c4.312-1.348,7.881-3.521,10.333-6.295c1.435-1.581,3.841-4.792,3.841-8.519c0-1.854-0.484-3.392-1.398-4.446
	c-0.914-1.054-2.235-1.611-3.822-1.611c-6.348,0-10.617,10.178-12.689,16.646c-1.017,0.076-2.344,0.24-4.045,0.497
	c-0.042,0.007-0.083,0.014-0.125,0.022c-0.02,0.004-0.04,0.007-0.059,0.01l-0.027,0.005c-0.013,0.001-0.025,0.004-0.037,0.007
	c-2.514,0.419-6.581,1.742-9.028,5.878c-0.414-1.705-1.114-3-1.803-3.787c-0.665-0.761-1.388-1.164-2.089-1.164
	c-1.337,0-2.467,1.371-2.467,2.993c0,0.613,0.075,1.499,0.709,2.151c0.7,0.864,1.375,2.064,1.375,6.002
	c0,1.979-0.992,9.706-1.585,14.324c-0.404,3.154-0.5,3.918-0.5,4.162c0,1.706,1.028,2.992,2.393,2.992
	c1.302,0,2.318-1.03,2.529-2.563l0.539-3.617c1.612-10.928,3.134-21.251,10.02-21.734l0.025-0.002
	c0.249-0.025,1.257-0.132,2.445-0.318c-1.426,5.677-2.206,11.254-2.206,15.852c0,4.761,0.949,8.216,2.821,10.27
	c1.388,1.521,3.21,2.263,5.571,2.263c1.6,0,3.197-0.63,4.744-1.87c1.818-1.459,3.423-3.658,4.645-6.361l0.021-0.051l1.532-4.674
	c2.334-6.091,4.703-8.263,6.144-8.263c0.94,0,1.524,2.214,1.524,5.776c0,4.261-0.77,9.521-1.44,12.78
	c-0.096,0.253-0.11,0.451-0.11,0.615c0,1.519,1.077,2.707,2.455,2.707c1.261,0,2.168-0.883,2.372-2.307
	c0.433-2.32,1.566-8.409,1.566-13.796C55.27,36.408,54.518,33.318,53.035,31.432z M39.911,10.214c0.406,0,0.515,0.731,0.515,1.162
	c0,1.146-1.063,3.365-2.23,4.653l-0.012,0.013c-1.332,1.522-3.169,2.9-5.142,3.89C36.002,12.815,38.497,10.214,39.911,10.214z
	 M31.681,34.995c0.688,0,1.306-0.281,1.787-0.813l0.023-0.028c0.667-0.798,1.328-1.093,2.439-1.093c0.397,0,0.738,0.097,1.044,0.299
	c0.993,0.653,1.562,2.435,1.562,4.881c0,2.914-0.732,5.971-2.063,8.608c-1.368,2.712-3.213,4.535-4.591,4.535
	c-2.444,0-3.684-2.646-3.684-7.859c0-3.062,0.429-6.838,1.156-10.564C29.602,34.126,30.551,34.995,31.681,34.995z"/>
</svg>
