<?xml version="1.0" encoding="utf-8"?>
<!-- Generator: Adobe Illustrator 16.0.0, SVG Export Plug-In . SVG Version: 6.00 Build 0)  -->
<!DOCTYPE svg PUBLIC "-//W3C//DTD SVG 1.1//EN" "http://www.w3.org/Graphics/SVG/1.1/DTD/svg11.dtd" [
	<!ENTITY ns_flows "http://ns.adobe.com/Flows/1.0/">
	<!ENTITY ns_extend "http://ns.adobe.com/Extensibility/1.0/">
	<!ENTITY ns_ai "http://ns.adobe.com/AdobeIllustrator/10.0/">
	<!ENTITY ns_graphs "http://ns.adobe.com/Graphs/1.0/">
]>
<svg version="1.1" id="Layer_1" xmlns:x="&ns_extend;" xmlns:i="&ns_ai;" xmlns:graph="&ns_graphs;"
	 xmlns="http://www.w3.org/2000/svg" xmlns:xlink="http://www.w3.org/1999/xlink" xmlns:a="http://ns.adobe.com/AdobeSVGViewerExtensions/3.0/"
	 x="0px" y="0px" width="64px" height="64px" viewBox="0 0 64 64" enable-background="new 0 0 64 64" xml:space="preserve">
<path fill="#ECF8F8" d="M53.916,32.448c-1.397-1.611-3.06-1.851-3.925-1.851c-2.548,0-4.801,1.282-6.607,3.735
	c-1.09-3.319-3.495-5.236-6.716-5.236c-3.417,0-5.455,1.41-6.348,2.735c0.379-1.508,0.814-2.979,1.294-4.352
	c4.383-1.242,8.01-3.244,10.503-5.8c1.458-1.457,3.903-4.415,3.903-7.849c0-1.709-0.491-3.126-1.421-4.098
	c-0.928-0.971-2.271-1.484-3.886-1.484c-6.45,0-10.792,9.377-12.897,15.336c-1.034,0.071-2.382,0.223-4.111,0.46
	c-0.042,0.006-0.085,0.013-0.127,0.02c-0.02,0.004-0.041,0.006-0.061,0.009l-0.028,0.005c-0.012,0.001-0.025,0.004-0.037,0.006
	c-2.555,0.386-6.69,1.604-9.177,5.417c-0.42-1.57-1.132-2.765-1.832-3.489c-0.677-0.701-1.411-1.072-2.125-1.072
	c-1.359,0-2.507,1.262-2.507,2.756c0,0.566,0.076,1.383,0.72,1.983c0.713,0.796,1.399,1.902,1.399,5.531
	c0,1.822-1.008,8.942-1.611,13.197c-0.411,2.907-0.508,3.61-0.508,3.836c0,1.571,1.046,2.756,2.432,2.756
	c1.324,0,2.356-0.948,2.572-2.36l0.548-3.332c1.638-10.07,3.186-19.581,10.185-20.028l0.026-0.002
	c0.252-0.023,1.278-0.121,2.485-0.293c-1.45,5.231-2.242,10.37-2.242,14.606c0,4.386,0.965,7.569,2.868,9.462
	c1.41,1.403,3.263,2.085,5.662,2.085c1.627,0,3.249-0.579,4.822-1.724c1.848-1.343,3.479-3.37,4.72-5.86l0.024-0.048l1.556-4.305
	c2.373-5.613,4.781-7.613,6.245-7.613c0.957,0,1.551,2.039,1.551,5.32c0,3.927-0.785,8.774-1.466,11.777
	c-0.097,0.233-0.111,0.416-0.111,0.566c0,1.399,1.096,2.495,2.495,2.495c1.282,0,2.204-0.814,2.412-2.127
	c0.44-2.137,1.592-7.747,1.592-12.712C56.188,37.034,55.423,34.187,53.916,32.448z M40.576,12.898c0.413,0,0.522,0.673,0.522,1.071
	c0,1.057-1.081,3.1-2.269,4.288l-0.011,0.012c-1.354,1.402-3.222,2.673-5.227,3.583C36.604,15.295,39.138,12.898,40.576,12.898z
	 M32.21,35.731c0.698,0,1.325-0.258,1.815-0.748l0.024-0.026c0.678-0.735,1.351-1.008,2.48-1.008c0.403,0,0.75,0.091,1.061,0.276
	c1.008,0.604,1.587,2.243,1.587,4.498c0,2.685-0.744,5.501-2.097,7.931c-1.392,2.499-3.267,4.18-4.666,4.18
	c-2.484,0-3.744-2.437-3.744-7.242c0-2.821,0.436-6.301,1.176-9.735C30.097,34.93,31.062,35.731,32.21,35.731z"/>
</svg>
