<?xml version="1.0" encoding="utf-8"?>
<!-- Generator: Adobe Illustrator 16.0.0, SVG Export Plug-In . SVG Version: 6.00 Build 0)  -->
<!DOCTYPE svg PUBLIC "-//W3C//DTD SVG 1.1//EN" "http://www.w3.org/Graphics/SVG/1.1/DTD/svg11.dtd" [
	<!ENTITY ns_flows "http://ns.adobe.com/Flows/1.0/">
	<!ENTITY ns_extend "http://ns.adobe.com/Extensibility/1.0/">
	<!ENTITY ns_ai "http://ns.adobe.com/AdobeIllustrator/10.0/">
	<!ENTITY ns_graphs "http://ns.adobe.com/Graphs/1.0/">
]>
<svg version="1.1" id="Layer_1" xmlns:x="&ns_extend;" xmlns:i="&ns_ai;" xmlns:graph="&ns_graphs;"
	 xmlns="http://www.w3.org/2000/svg" xmlns:xlink="http://www.w3.org/1999/xlink" xmlns:a="http://ns.adobe.com/AdobeSVGViewerExtensions/3.0/"
	 x="0px" y="0px" width="64px" height="64px" viewBox="0 0 64 64" enable-background="new 0 0 64 64" xml:space="preserve">
<path fill="#F06449" d="M31.64,0.416c-17.559,0-31.792,14.233-31.792,31.792c0,17.556,14.233,31.791,31.792,31.791
	s31.791-14.235,31.791-31.791C63.431,14.649,49.199,0.416,31.64,0.416 M44.283,25.726c0.011,0.279,0.02,0.56,0.02,0.843
	c0,8.618-6.562,18.557-18.559,18.557c-3.684,0-7.112-1.079-9.999-2.928c0.511,0.058,1.029,0.088,1.556,0.088
	c3.057,0,5.868-1.041,8.101-2.792c-2.855-0.052-5.264-1.936-6.094-4.528c0.4,0.075,0.808,0.116,1.229,0.116
	c0.593,0,1.169-0.08,1.718-0.229c-2.984-0.598-5.231-3.234-5.231-6.394c0-0.027,0-0.057,0-0.084
	c0.878,0.488,1.886,0.782,2.955,0.816c-1.75-1.169-2.903-3.168-2.903-5.429c0-1.194,0.322-2.316,0.885-3.279
	c3.216,3.945,8.022,6.544,13.443,6.815c-0.11-0.478-0.169-0.977-0.169-1.487c0-3.603,2.921-6.522,6.522-6.522
	c1.876,0,3.571,0.792,4.76,2.06c1.486-0.292,2.884-0.834,4.144-1.581c-0.487,1.521-1.523,2.801-2.868,3.607
	c1.32-0.157,2.575-0.509,3.745-1.026C46.662,23.656,45.555,24.805,44.283,25.726"/>
</svg>
