<?xml version="1.0" encoding="utf-8"?>
<!-- Generator: Adobe Illustrator 16.0.0, SVG Export Plug-In . SVG Version: 6.00 Build 0)  -->
<!DOCTYPE svg PUBLIC "-//W3C//DTD SVG 1.1//EN" "http://www.w3.org/Graphics/SVG/1.1/DTD/svg11.dtd" [
	<!ENTITY ns_flows "http://ns.adobe.com/Flows/1.0/">
	<!ENTITY ns_extend "http://ns.adobe.com/Extensibility/1.0/">
	<!ENTITY ns_ai "http://ns.adobe.com/AdobeIllustrator/10.0/">
	<!ENTITY ns_graphs "http://ns.adobe.com/Graphs/1.0/">
]>
<svg version="1.1" id="Layer_1" xmlns:x="&ns_extend;" xmlns:i="&ns_ai;" xmlns:graph="&ns_graphs;"
	 xmlns="http://www.w3.org/2000/svg" xmlns:xlink="http://www.w3.org/1999/xlink" xmlns:a="http://ns.adobe.com/AdobeSVGViewerExtensions/3.0/"
	 x="0px" y="0px" width="32px" height="32px" viewBox="0 0 32 32" enable-background="new 0 0 32 32" xml:space="preserve">
<path fill="#ECF8F8" d="M32,6.076c-1.177,0.522-2.443,0.875-3.771,1.034c1.356-0.813,2.397-2.099,2.889-3.632
	c-1.27,0.752-2.676,1.298-4.169,1.593c-1.198-1.276-2.904-2.073-4.794-2.073c-3.625,0-6.563,2.939-6.563,6.565
	c0,0.514,0.058,1.015,0.17,1.496c-5.457-0.274-10.294-2.888-13.532-6.86C1.663,5.168,1.339,6.297,1.339,7.5
	c0,2.277,1.159,4.287,2.92,5.464c-1.076-0.034-2.088-0.329-2.973-0.821c-0.001,0.028-0.001,0.055-0.001,0.083
	c0,3.181,2.263,5.834,5.267,6.437c-0.551,0.149-1.131,0.229-1.73,0.229c-0.423,0-0.834-0.041-1.235-0.117
	c0.835,2.608,3.26,4.507,6.133,4.56c-2.247,1.763-5.078,2.812-8.154,2.812c-0.53,0-1.052-0.031-1.566-0.092
	c2.905,1.862,6.356,2.948,10.064,2.948c12.077,0,18.679-10.004,18.679-18.678c0-0.285-0.007-0.568-0.019-0.85
	C30.007,8.549,31.12,7.393,32,6.076"/>
</svg>
