<?xml version="1.0" encoding="utf-8"?>
<!-- Generator: Adobe Illustrator 16.0.0, SVG Export Plug-In . SVG Version: 6.00 Build 0)  -->
<!DOCTYPE svg PUBLIC "-//W3C//DTD SVG 1.1//EN" "http://www.w3.org/Graphics/SVG/1.1/DTD/svg11.dtd" [
	<!ENTITY ns_flows "http://ns.adobe.com/Flows/1.0/">
	<!ENTITY ns_extend "http://ns.adobe.com/Extensibility/1.0/">
	<!ENTITY ns_ai "http://ns.adobe.com/AdobeIllustrator/10.0/">
	<!ENTITY ns_graphs "http://ns.adobe.com/Graphs/1.0/">
]>
<svg version="1.1" id="Layer_1" xmlns:x="&ns_extend;" xmlns:i="&ns_ai;" xmlns:graph="&ns_graphs;"
	 xmlns="http://www.w3.org/2000/svg" xmlns:xlink="http://www.w3.org/1999/xlink" xmlns:a="http://ns.adobe.com/AdobeSVGViewerExtensions/3.0/"
	 x="0px" y="0px" width="64px" height="64px" viewBox="0 0 64 64" enable-background="new 0 0 64 64" xml:space="preserve">
<path fill="#F06449" d="M32,0.142c-17.554,0-31.784,14.23-31.784,31.784c0,17.553,14.229,31.782,31.784,31.782
	c17.554,0,31.782-14.229,31.782-31.782C63.783,14.372,49.554,0.142,32,0.142 M32,47.816c-8.763,0-15.892-7.129-15.892-15.891
	c0-8.764,7.129-15.893,15.892-15.893c8.762,0,15.891,7.129,15.891,15.893C47.891,40.688,40.762,47.816,32,47.816"/>
<path fill="#F06449" d="M41.645,31.203c0-1.766-0.635-2.989-1.178-3.94c-0.725-1.176-1.404-2.174-1.404-3.352
	c0-1.313,0.997-2.533,2.4-2.533c0.063,0,0.122,0.008,0.184,0.012c-2.54-2.33-5.928-3.754-9.648-3.754
	c-4.99,0-9.381,2.563-11.936,6.439c0.335,0.011,0.651,0.02,0.919,0.02c1.494,0,3.808-0.184,3.808-0.184
	c0.768-0.043,0.861,1.087,0.091,1.178c0,0-0.774,0.092-1.635,0.137L28.449,40.7l3.126-9.375l-2.227-6.1
	c-0.769-0.045-1.498-0.137-1.498-0.137c-0.771-0.045-0.679-1.221,0.092-1.178c0,0,2.357,0.184,3.762,0.184
	c1.494,0,3.809-0.184,3.809-0.184c0.771-0.043,0.861,1.087,0.092,1.178c0,0-0.774,0.092-1.635,0.137l5.161,15.358l1.427-4.762
	C41.175,33.846,41.645,32.426,41.645,31.203"/>
<path fill="#F06449" d="M17.84,32.209c0,5.604,3.255,10.448,7.98,12.742l-6.755-18.507C18.28,28.205,17.84,30.155,17.84,32.209"/>
<path fill="#F06449" d="M32.25,33.174l-4.286,12.459c1.279,0.373,2.634,0.581,4.036,0.581c1.663,0,3.26-0.288,4.744-0.81
	c-0.039-0.064-0.074-0.127-0.103-0.199L32.25,33.174z"/>
<path fill="#F06449" d="M39.184,44.274c4.245-2.478,7.103-7.079,7.103-12.349c0-2.484-0.634-4.821-1.75-6.854
	c0.062,0.454,0.098,0.941,0.098,1.468c0,1.45-0.272,3.079-1.088,5.117L39.184,44.274z"/>
</svg>
